<?xml version="1.0" encoding="utf-8"?>
<svg version="1.1" id="Layer_1"
xmlns="http://www.w3.org/2000/svg"
xmlns:xlink="http://www.w3.org/1999/xlink"
xmlns:author="http://www.sothink.com"
width="56px" height="83px"
xml:space="preserve">
<g id="1198" transform="matrix(1, 0, 0, 1, 3.4, 93.7)">
<path style="fill:#000000;fill-opacity:1" d="M45.35,-37.4L45.45 -37.9L45.55 -37.9L45.6 -37.45L45.45 -36.25L45.9 -36.95L46.7 -37.75L48.15 -37.65L48.75 -37.25L47.5 -38.55L45.6 -38.75L44.85 -38.45L44.85 -38.4L45.3 -37.3L45.15 -36.55L45.05 -36.55Q44.9 -37.45 44.05 -38.25Q43.25 -39 43.25 -39.7L43.6 -42.1L43.6 -42.35L43.5 -42.35Q42.7 -42.35 42.3 -43.5L42.25 -43.75L40.6 -45.25L39.35 -46.4L39.25 -46.3L35.75 -47.75Q34 -48.4 33.25 -48.95L33.55 -47L34.45 -44.85L36.1 -40.45Q37.15 -37.85 37.6 -35.8L38.3 -32.2L38.3 -31.95L38.65 -31L38.95 -30.2L39.1 -29.9L39.05 -29.75L38.9 -29.7L38.75 -29.75L38.7 -29.75L37.1 -27.7L36.95 -27.3L36.5 -26.85L32.25 -24.15L31.4 -23.9L29.05 -22.25L26.05 -19.5L24.05 -17.6L23.3 -17.1L23.3 -17.15L23.15 -17.1L23.05 -17Q22.8 -16.8 22.5 -17.2L22.45 -17.35L21.95 -16.85L21.9 -16.8L21.4 -15.85L20.65 -14.55L19.1 -11.4L18.9 -11.3L18.5 -11.4L18.4 -11.4L17.8 -12.1L17.5 -12.7Q17.15 -13.15 17.05 -15Q16.9 -16.6 17.05 -17.3Q17.3 -18.95 18.25 -20.7Q19.2 -22.45 20.3 -22.75L21.3 -22.8Q21.7 -22.7 21.95 -22.45L21.85 -22.6L22.05 -22.8L23.3 -23.15Q24.9 -23.85 28.4 -26.65L29.05 -28.05Q29.85 -29.65 31.2 -30.7L32.05 -31.25L32 -31.35Q31.9 -31.45 32.15 -31.85L32.25 -32.05L31.5 -33.6L31.2 -34.1L30.8 -33.9Q30.1 -34.9 30.1 -35.4L30.15 -35.4L30.05 -35.6Q29.25 -36.6 28.7 -38.45L28.7 -38.55Q28.45 -38.4 28.3 -38.55L28.15 -39.55Q27.95 -40.05 28.2 -40.5L27.85 -42.5L27.5 -43.35L27.35 -43.9L27.05 -44.25L26.95 -44.4Q26.45 -44.4 25.75 -45L24.6 -46.05L24.4 -46.3L24.2 -46.55Q23.65 -47.2 22.45 -50.2L21.15 -53L20.7 -54.15L18.75 -55.8L15.55 -58.6Q12.1 -61.3 10.65 -63.6L9.3 -64.9L7.05 -67.35L5.2 -69.65Q3.95 -70.8 3.65 -71.8L2.8 -74.15Q2.45 -75.5 1.6 -76.4Q1.35 -76.65 1.35 -77.05L1.35 -77.6L0.8 -78.7L0.4 -79.75L0.15 -80.95L-0.1 -82.05L-0.4 -83L-0.65 -84.95Q-0.65 -85.55 -1.15 -87.05L-1.6 -88.8L-2.65 -90.95L-3.4 -93.05Q-3.4 -93.8 -2.6 -93.35L-1.4 -92.7L0.05 -93L1.55 -92.85L1.9 -91.8Q2.5 -92.35 2.75 -92.15L2.85 -91.3L2.6 -89.2L2.55 -88.15Q2.4 -87.55 1.9 -87.25L3.45 -82.85L4.55 -80L5.3 -77.9L5.25 -77.4L6.95 -74.85L7.9 -76.1L8.25 -76.9Q7.55 -76 6.9 -76L6.55 -76.05L7.6 -77.1L8.5 -78.3L8.9 -78.75Q9.3 -80.3 11.25 -81.05L14.05 -80.85L14.5 -80.75Q15.5 -80.5 16.85 -79.65L16.4 -79.6L15.4 -79.8L16.65 -78.2L16.8 -78.05L17.4 -77.25Q17.4 -76.85 16.85 -76.85L17.15 -75.65Q18 -76.85 19.75 -76.5L21.05 -76.1L21.35 -76.35L22.25 -76.95L23.85 -78.35L23.9 -78.45L23.95 -78.45L25.75 -79.8L26.7 -80.55L27.05 -80.75L25.55 -83.2L25.2 -83.65L23.15 -86.2L21.8 -87.65L20.05 -88.95Q19.7 -89.15 19.65 -89.65L19.6 -90.45L19 -91.85Q19 -92.35 19.4 -92.3L20.05 -91.75L20 -92.65Q20 -93.05 20.35 -93.35Q20.75 -93.7 21.4 -93.7L21.75 -93.55L22.05 -93.25L23.25 -92.6L23.5 -93.05Q23.7 -93.35 24.1 -93.35Q24.9 -93.35 24.8 -92.45L24.65 -91.8L24.3 -91.4Q24.95 -90.7 24.95 -89.35L24.85 -88.8L25.45 -88.35L26.3 -87.2L27.35 -86.05L27.8 -85.65L28.1 -85.65L28.15 -85.3L28.4 -84.95Q29.4 -83.25 30.75 -82Q31.6 -81.25 31.6 -80.45L31.55 -79.9L31.05 -79.55Q30.15 -78.4 26.65 -75.85L26.6 -75.7L26.45 -75.65L26.45 -75.7L23.6 -73.55Q22.2 -72.6 22.1 -72.35Q22 -72.1 22.2 -71.4L22.15 -71.15L22.15 -71.05L22.25 -70.45L22.5 -68.9L23.15 -65.75Q23.5 -64.5 24.65 -62.6L28.05 -60.45L32.05 -58.8Q34.75 -57.55 36.15 -56.6L36.2 -56.6L36.15 -56.65Q36.55 -56.4 38.8 -55.3L41.45 -54L41.45 -53.6L41.5 -53.55L41.6 -53.45L41.55 -53.3Q42.05 -52.9 43.1 -52.15L44.95 -50.5Q45.15 -50.25 44.95 -50.1L44.9 -50.05L45.1 -49.9L45 -49.75L46.15 -48.35L46.65 -47.1L47.05 -46.35L48.05 -44.75L48.05 -44.7L48.85 -43.65L48.65 -42.75L49 -42.05L49.45 -40.55L49.45 -38.3L49.65 -36.05L50.1 -34.95L50.4 -33.85L50.6 -32.45L50.55 -31.65L50.85 -31.05L51.95 -28.25L52.25 -25.75Q51.8 -23.4 51.2 -23.4Q50.6 -23.4 49.4 -24.35L48.2 -25.5Q47.85 -26.2 47.55 -27.85L47.5 -29.05Q47.45 -29.8 47 -30.15Q45.3 -31.6 45.55 -32.5L45.3 -31.95L45.2 -32.4L45.35 -32.85L44.85 -35.1L45.2 -36.65L45.35 -37.35L45.35 -37.4M21.35,-93.25Q20.55 -93.25 20.4 -92.25L20.4 -91.9Q20.5 -92.05 20.9 -92.2L23.05 -92.15L22.5 -92.75L21.6 -92.95L21.35 -93.25M21,-89.1L21 -89.15Q20.4 -90.2 20.45 -90.7L20.4 -90.65Q20.1 -90.75 19.85 -91.35Q19.65 -91.9 19.25 -91.8L20 -90.35Q20.2 -89.5 20.95 -89.15L21 -89.1M20.4,-90.9L20.45 -90.7L20.45 -90.75L20.55 -90.75L21.35 -88.9L22.1 -88.1L22.45 -88.55L23.05 -88.8L22.8 -88.85L22.6 -88.75L22.4 -88.65Q22 -88.65 22 -89.15Q22 -89.7 22.65 -89.7Q23.85 -89.7 23.85 -89L23.85 -88.85L24.4 -88.75L24.45 -89.3L24.2 -90.4L23.95 -91.4L23.6 -91.6L21.7 -92.05Q20.75 -92.05 20.4 -91.6L20.45 -91L20.4 -90.9M24,-91.6L24.2 -91.45L24.45 -92.4L24.15 -93L23.7 -92.5L23.25 -92L24 -91.5L24 -91.6M-2.3,-92.55L-2.9 -92.95L-2.2 -91.05L-1.45 -89.4Q-0.9 -88.8 -0.75 -87.75L-0.55 -86.05Q-0.3 -85.15 -0.2 -82.75Q-0.05 -81.4 1 -79.35L1.45 -78.6L1.9 -77.7L2.05 -76.9L2.6 -76.05Q3.05 -75.45 3.2 -74.4L3.6 -72.7L4.35 -71.05L5.8 -69.4L10.4 -64.15L10.45 -64.2L12.5 -61.95L12.15 -62.85L11.45 -65.4L11.15 -67.45L11 -68.75L10.95 -68.75L10.95 -68.95L10.9 -69.1L10.95 -69.2L10.9 -69.5L10.95 -69.8L10.9 -70.2L10.45 -70.4Q10.3 -69.65 10.05 -69.65Q9.55 -69.65 9.5 -70.1L9.5 -70.75L9 -70.85L9.05 -70.25L9.05 -70.1L8.95 -70.05Q8.45 -70.65 8.3 -71.7L6.95 -73.85L6.9 -74L6.7 -73.95L6.4 -74L6.35 -74.25L6.6 -74.5L4.8 -77.75L4.85 -77.85L5.2 -77.5Q3.6 -80.45 3 -82.45L1.55 -87.25L1.5 -87.4L1.45 -87.55L1.5 -87.8L1.65 -87.8L1.7 -87.75L1.9 -88.1L2.25 -89.1L2.55 -90.75L2.55 -91.7L2.3 -91.8L1.9 -91.65L1.9 -91.6L1.6 -88.9L1.5 -88.75L1.4 -89.2L1.6 -90.75L1.6 -91.35L1.45 -91.45L1.6 -91.55L1.4 -92.2Q1.15 -92.5 0.1 -92.5L-1.4 -92.15Q-1.75 -92.15 -2.3 -92.55M8.4,-74.5L7.35 -74.15L8.2 -72.65L8.2 -72.8L8.4 -74.4L8.4 -74.5M8.9,-73.25L8.85 -73L8.95 -73.25L8.9 -73.25M9.05,-71.95L9.05 -71.45L9.2 -71.25L9.3 -71.3L9.05 -71.95M10.55,-71.3L10.55 -70.95L10.75 -70.8L10.6 -71.3L10.55 -71.3M12.2,-68.8Q12.9 -67.75 13.55 -67.75L14.6 -68.45L13.95 -68.75L13.95 -69.35L13.95 -70.15Q13.1 -69.2 12.6 -69.2L12.55 -69.2L12.05 -69.05L12.2 -68.8M25.4,-87.8L25.05 -88.2L23.6 -88.3L22.65 -88.1L22.3 -87.8L23.15 -86.55L24.6 -85.05L25.4 -83.9L25.5 -83.95L25.45 -84.1Q25.45 -84.55 26.2 -85.15Q26.7 -85.55 27.3 -85.65L27.25 -85.7L26.15 -86.8L25.4 -87.8M24,-78L22.35 -76.5L21.8 -75.85L21.6 -75.75L21.85 -75.55L21.2 -75.45L21 -75.4L20.7 -75.5L20 -75.7L19.1 -75.95Q18.1 -75.95 17.45 -75.3L17.05 -74.75L17.05 -74.45L16.95 -72.9L16.85 -72.85L16.8 -74.2L16.15 -72.95L16.15 -72.55L18 -70.5L20.2 -69.3L21.15 -69.1L21.75 -68.95Q21.4 -70.6 21.4 -71.4L21.45 -71.7L21.4 -72Q21.4 -72.75 23.75 -74Q24.7 -74.6 26.45 -75.95L25.9 -77.05Q25.25 -77.85 24.15 -78.1L24 -78M16.4,-74.25L16.75 -74.95L16.65 -75.15L16.4 -74.25M15.45,-70.45L15 -71.5L14.05 -70.3L14.05 -69.4Q14.1 -68.95 14.65 -68.55L14.7 -68.6L15.35 -69.8L15.45 -70.45M27.35,-45.05L27.3 -45.1Q27.1 -45.35 27.9 -46.7L28.9 -48.1Q27.9 -46.6 27.45 -45L27.9 -46.1L28.95 -47.6L28.2 -45.8L27.85 -44.95L27.7 -44.3Q27.5 -43.8 27.75 -43.25Q27.75 -42.9 28.05 -42.2Q28.4 -40.2 29.05 -38.35Q29.65 -36.45 30.9 -35.15Q32.05 -33.85 32.4 -32.55L32.9 -33.9L33.6 -35.65Q33.85 -37.5 34.25 -38.65L33.85 -35.75L33.15 -34Q32.6 -32.85 32.55 -32.3L32.5 -32.25L32.5 -32.15L32.5 -31.9L32.6 -32L34.55 -32.25L35.35 -32.15L35.5 -32.1Q33.45 -32.2 32.85 -31.7L32.6 -31.5L33.8 -31.35L35.5 -30.05L35.35 -30.75L34.1 -31.55L34.1 -31.6L34.85 -31.35L35.55 -30.9L35.7 -30.55L35.7 -30L35.5 -30.05L34.15 -30.95L33.55 -31.2L33.5 -31.15L32.5 -30.8L32.15 -30.6L32.1 -30.55L32 -30.5L30.95 -29.9L30.25 -29.2Q31.65 -30.35 33.8 -29.6Q35.35 -29.1 35.9 -28.4L36.3 -27.35L35.25 -28.15Q34.65 -28.7 33.95 -28.85L33.15 -29.15L32.25 -29.25L31.2 -29.05L30.15 -28.4L30.1 -28.35L30.6 -28.05L31.05 -27.6Q31.4 -27.15 31.35 -25.8L31.1 -23.85L30.95 -23.75L30.8 -23.85L30.85 -26.55L30.55 -27.55L29.9 -28.35L29.95 -28.4L29.8 -28.45L29.8 -28.7L29.2 -27.75L28.6 -26.6L27.25 -25.5L27.9 -25.55Q29.5 -25.75 29.95 -25.15L30.45 -24.15L30.45 -24.05L29.65 -24.6L28.9 -24.95L27.55 -24.95L26.6 -25L26.55 -25L23.75 -23L25.5 -23.05L26.75 -22.4L27.1 -21.8L27.15 -21.75L27.2 -23.1L27.1 -23.9L27 -24.7L27.15 -24.6Q27.55 -24.1 27.5 -22.7L27.4 -21.1L29.5 -22.9L32.4 -24.45Q34.1 -25.3 35.1 -26.15L36.35 -27.35L36.4 -27.45L36.5 -27.7L36.5 -27.75Q36.5 -28.65 37.1 -29.15L37.35 -29.35Q37.55 -29.95 38.1 -30.45L38 -31L38 -31.7L38.1 -31.7L37.2 -36.1Q36.55 -38.85 35.65 -40.6L34.8 -42.85L33.95 -44.9Q33.35 -45.95 33 -47.2L33.9 -39.3L33.85 -39.3L33.3 -43.15L33 -45.15Q32.85 -46.3 33 -47.2L32.95 -47.4L32.9 -47.7L32.75 -45.95Q32.65 -45.4 32.85 -42.75Q32.25 -45.7 32.75 -49.3L32.5 -49.5Q32.3 -49.8 32.35 -50.15L32.35 -50.25L30.75 -50.05L29.45 -50.3Q28.7 -50.45 28.35 -50.75L27.75 -51.5Q27.1 -52.35 27.2 -52.65L27.5 -52Q28.45 -50.85 29.25 -50.6L32.4 -50.3L32.45 -51.35Q32.65 -52.35 33.15 -53L32.6 -51.3Q32.45 -50.95 32.55 -50.35L32.5 -50.35L32.5 -50.3L32.55 -50.2L32.8 -49.95L33.7 -49.2L35.95 -48L38.2 -47.15L38.8 -46.9L38.9 -46.9L39.1 -46.75L39.6 -46.55L39.5 -46.5L42.15 -44.1L41.9 -44.7L41.1 -46.55L40.4 -47.25L39.35 -48.4L40.55 -47.4L40.95 -46.9L40.9 -47.1L40.95 -47.2L41.75 -46.2L42.35 -44.95L42.65 -44.35L42.8 -43.65Q42.95 -43.2 43.65 -42.6L43.65 -42.75L43.8 -43.1Q43.8 -43.6 44.6 -44.55Q45.4 -45.5 45.95 -45.7L44.65 -44.25L44.15 -43.45L44.4 -43.65Q45.1 -44 46.3 -43.4L46.6 -43.2L45.4 -43.55Q44.2 -43.55 43.95 -42.65L43.9 -42.45L43.85 -41.7L43.85 -41.15L44.55 -41.9L46.95 -41.8L48.4 -40.45L48.7 -40.2L49.15 -39.1L49.15 -40L48.85 -41.45L48.25 -42Q48 -42.25 48 -42.7L48.2 -43.65L47.55 -44.7L47.05 -45.75L47.05 -45.85L47.55 -45.3L46.7 -46.45L46.5 -46.5L45.15 -49.15L44.6 -49.7L43.55 -49.8Q42.2 -49.8 41.4 -49.05L41.75 -48.8L41.75 -48.7L41.4 -49L41.25 -48.9L41.3 -48.95L39.6 -50.2Q37.85 -51 37.2 -51.5Q38.35 -51.25 39.7 -50.4L41.4 -49.1Q41.75 -50 43.3 -50.1L44.25 -50.15L44.4 -50.25L44.4 -50.45L44.5 -50.35L44.7 -50.4L41.15 -53.3L40.3 -53.35L41.15 -52.55Q42.15 -51.5 42.7 -51.2Q42.05 -51.45 41.25 -52.05L39.9 -53.25L39.8 -53.3L39.4 -53.35L38.9 -53.2L37.9 -52.6L37.2 -51.9L37.45 -51.8L37.45 -51.75L37.1 -51.8L36.95 -51.65L37.05 -51.85Q35.7 -52.1 35.35 -52.6Q35.25 -52.7 35.3 -52.9L35.7 -52.85L36.2 -52.55L36.75 -52.35L36.95 -52L37.1 -51.95Q38.4 -54.45 40.95 -53.8L40.9 -53.85L38.5 -55.05L37.2 -55.7L37.45 -55.25L37.35 -55.2Q34.35 -57.4 32.25 -58.2L32.15 -58.25L31.85 -58.35L32.1 -58.2L32.1 -58.1L30.6 -58.05L27.9 -55.7L27.15 -54.65L26.4 -53.65L26.45 -53.55Q26.65 -52.9 27.2 -51.9L28.3 -50.15L27.45 -50.95L26.7 -52.4L26.4 -53.55L25.75 -52.6Q23.95 -50.55 23.65 -49.4L23.7 -48.65Q24.3 -47.25 24.95 -46.4L25.6 -45.7L25.85 -45.6L26.3 -45.35L27.2 -45.05L27.3 -45.05L27.35 -45.05M28.4,-39.55L28.55 -39.05L28.45 -39.7L28.4 -39.55M30.7,-34.7L30.5 -35.05L30.4 -35.15L30.7 -34.7M30.9,-34.4L30.9 -34.35L30.95 -34.4L30.95 -34.45L30.9 -34.4M32.3,-31.35L32.45 -31.35L32.4 -31.55L32.3 -31.35M20.1,-22.4Q18.85 -21.55 17.95 -19.55Q17.15 -17.65 17.2 -16.45Q16.95 -15.3 17.35 -14.15L18.15 -12.15L18.45 -11.8L19.45 -13.25L19.8 -14.1L19.95 -14.65L19.55 -16.75L19.3 -17.2L19.2 -17.7L19.75 -19.3L20.35 -20.9L20.35 -22.05L20.1 -22.4M22.45,-21.85Q23.05 -21.1 22.8 -19.65Q22.5 -18.3 22.65 -18.05L23.25 -18.6L23.5 -18.5L23.6 -18.5L23.55 -18.35L22.65 -17.65L22.75 -17.35L22.85 -17.25L23.15 -17.35L23.6 -18.25L23.65 -18.45L23.65 -18.55L23.8 -19.8L23.3 -21.45Q22.85 -22.4 22.55 -21.95Q22.45 -21.9 22.25 -22.1L22.2 -22.15L20.5 -22.5L20.3 -22.35Q21.15 -21.35 20.2 -19.6L19.55 -17.9Q19.4 -17.7 19.7 -16.85L20.15 -14.75Q20.9 -16.4 21.65 -17.3L21.9 -17.8L22.15 -18.25L22.35 -18.3L22.6 -19.2Q22.85 -20.15 22.7 -20.5L22.55 -21.3Q22.4 -21.9 22.05 -21.95L22.2 -22.05L22.45 -21.85M22.3,-22.15L22.25 -22.2Q22.65 -22.5 23.3 -21.75Q24.05 -20.8 23.95 -19.1L23.6 -17.4L24.35 -18.3L25.8 -19.65L27.35 -21.1L27.1 -21.15L27.15 -21.7L25.85 -22.5L23.6 -22.6L23.8 -22.5Q23.5 -22.25 23.25 -22.6L23.45 -22.85L23.2 -22.75L21.95 -22.45L22.15 -22.35L22.2 -22.3L22.2 -22.15L22.3 -22.15M38.8,-53L42.25 -50.5Q41.1 -51 38.7 -52.9L38.8 -53M40,-47.45L40.4 -46.85L40.15 -46.75L39.9 -47.4L40 -47.45M42.5,-47.05L42.75 -47.35L42.6 -47.05L42.5 -47.05M33.35,-50.2Q33.1 -50.95 33.1 -51.9Q33.15 -53.15 33.75 -53.95Q33.35 -51 33.45 -50.25L33.35 -50.2M32.9,-49.2L32.75 -49.25L32.85 -49.1L32.9 -49.2M46.25,-45.1L46.45 -45L45.85 -44.6L46.6 -44.05L46.55 -43.85Q46.7 -43.8 46.45 -43.8Q46.25 -43.8 45.75 -44.1L45.2 -44.4L45.65 -44.9L46.25 -45.1M47.75,-40.7L47.7 -40.75Q46.8 -41.75 45.9 -41.75L44.65 -41.5L43.85 -40.6L43.75 -39.8Q43.65 -39.55 44.15 -39.15L44.8 -38.5L44.8 -38.6L44.8 -38.7L44.75 -39Q44.75 -39.6 45.4 -40.25L46.4 -40.85L47.7 -40.7L47.75 -40.7M47.7,-42.45L47.1 -42.9L47.75 -42.5L47.7 -42.45M48.65,-39.6L48.6 -39.55L48.3 -39.95L47.25 -40.3Q45.8 -40.3 45.25 -39.55L45.05 -38.95L45.8 -39.2Q46.95 -39.35 48.3 -38.5Q48.9 -37.9 49.05 -36.9L49.15 -36.7L48.3 -37.2L47.3 -37.3Q45.9 -37.3 45.55 -35.2L45.45 -35.2L45.35 -35.75L45.15 -35.05L45.25 -34.3L45.3 -34.1L45.3 -34.3Q45.3 -35.3 46.25 -35.55Q47.2 -35.8 48.7 -34.85L48.7 -34.9L48.75 -35L49.7 -34.1L50.15 -32.9L50.1 -32.3L50.45 -31.85L50.05 -34.4L49.15 -37.15L49.15 -39.1L49.05 -39.05L48.7 -39.6L48.65 -39.65L48.65 -39.6M48.3,-34.95L46.05 -35.25L45.65 -34.6L45.5 -33.9L45.55 -33.3L45.6 -33.15L45.6 -33.35L45.9 -34.25Q46.35 -35 47.5 -34.45L48.7 -33.55L49.55 -32.85L49.35 -33.55L48.85 -34.65L48.75 -34.7L48.3 -34.95M46.45,-34.2Q46.05 -34.2 45.9 -33.4L46.4 -33.75L47.3 -34.1L46.45 -34.2M45.65,-32.4Q45.65 -31.9 46.15 -31.35L47.4 -30.15L47.8 -29.1L47.85 -27.95Q48.05 -26.4 48.4 -25.8Q49.15 -24.45 51.25 -23.85Q52.05 -25 52.05 -27.05L51.35 -29.45L50.55 -31.25L49.85 -32.15L49.8 -32.15L49.8 -32.2L48.5 -33.3L46.65 -33.45L45.85 -32.85L45.85 -32.1L45.75 -32.05L45.7 -32.4L45.65 -32.5L45.65 -32.4M38.15,-30L38.15 -30.05L38.05 -29.95L38.15 -30" />
<path style="fill:#DCB478;fill-opacity:1" d="M21.6,-92.95L22.5 -92.75L23.05 -92.15L20.9 -92.2Q20.5 -92.05 20.4 -91.9L20.4 -92.25Q20.55 -93.25 21.35 -93.25L21.6 -92.95M20.95,-89.15Q20.2 -89.5 20 -90.35L19.25 -91.8Q19.65 -91.9 19.85 -91.35Q20.1 -90.75 20.4 -90.65L20.45 -90.7Q20.4 -90.2 21 -89.15L20.95 -89.15M24,-91.5L23.25 -92L23.7 -92.5L24.15 -93L24.45 -92.4L24.2 -91.45L24 -91.6L24 -91.5M-1.4,-92.15L0.1 -92.5Q1.15 -92.5 1.4 -92.2L1.6 -91.55L1.45 -91.45L1.6 -91.35L1.6 -90.75L1.4 -89.2L1.5 -88.75L1.6 -88.9L1.9 -91.6L1.9 -91.65L2.3 -91.8L2.55 -91.7L2.55 -90.75L2.25 -89.1L1.9 -88.1L1.7 -87.75L1.65 -87.8L1.5 -87.8L1.45 -87.55L1.5 -87.4L1.55 -87.25L3 -82.45Q3.6 -80.45 5.2 -77.5L4.85 -77.85L4.8 -77.75L6.6 -74.5L6.35 -74.25L6.4 -74L6.7 -73.95L6.9 -74L6.95 -73.85L8.3 -71.7Q8.45 -70.65 8.95 -70.05L9.05 -70.1L9.05 -70.25L9 -70.85L9.5 -70.75L9.5 -70.1Q9.55 -69.65 10.05 -69.65Q10.3 -69.65 10.45 -70.4L10.9 -70.2L10.95 -69.8L10.9 -69.5L10.95 -69.2L10.9 -69.1L10.95 -68.95L10.95 -68.75L11 -68.75L11.15 -67.45L11.45 -65.4L12.15 -62.85L12.5 -61.95L10.45 -64.2L10.4 -64.15L5.8 -69.4L4.35 -71.05L3.6 -72.7L3.2 -74.4Q3.05 -75.45 2.6 -76.05L2.05 -76.9L1.9 -77.7L1.45 -78.6L1 -79.35Q-0.05 -81.4 -0.2 -82.75Q-0.3 -85.15 -0.55 -86.05L-0.75 -87.75Q-0.9 -88.8 -1.45 -89.4L-2.2 -91.05L-2.9 -92.95L-2.3 -92.55Q-1.75 -92.15 -1.4 -92.15M12.05,-69.05L12.55 -69.2L12.6 -69.2Q13.1 -69.2 13.95 -70.15L13.95 -69.35L13.95 -68.75L14.6 -68.45L13.55 -67.75Q12.9 -67.75 12.2 -68.8L12.05 -69.05M26.15,-86.8L27.25 -85.7L27.3 -85.65Q26.7 -85.55 26.2 -85.15Q25.45 -84.55 25.45 -84.1L25.5 -83.95L25.4 -83.9L24.6 -85.05L23.15 -86.55L22.3 -87.8L22.65 -88.1L23.6 -88.3L25.05 -88.2L25.4 -87.8L26.15 -86.8M24.15,-78.1Q25.25 -77.85 25.9 -77.05L26.45 -75.95Q24.7 -74.6 23.75 -74Q21.4 -72.75 21.4 -72L21.45 -71.7L21.4 -71.4Q21.4 -70.6 21.75 -68.95L21.15 -69.1L20.2 -69.3L18 -70.5L16.15 -72.55L16.15 -72.95L16.8 -74.2L16.85 -72.85L16.95 -72.9L17.05 -74.45L17.05 -74.75L17.45 -75.3Q18.1 -75.95 19.1 -75.95L20 -75.7L20.7 -75.5L21 -75.4L21.2 -75.45L21.85 -75.55L21.6 -75.75L21.8 -75.85L22.35 -76.5L24 -78L24.15 -78.1M15.35,-69.8L14.7 -68.6L14.65 -68.55Q14.1 -68.95 14.05 -69.4L14.05 -70.3L15 -71.5L15.45 -70.45L15.35 -69.8M23.55,-18.35L23.6 -18.5L23.5 -18.5L23.25 -18.6L22.65 -18.05Q22.5 -18.3 22.8 -19.65Q23.05 -21.1 22.45 -21.85L22.2 -22.05L22.25 -22.1Q22.45 -21.9 22.55 -21.95Q22.85 -22.4 23.3 -21.45L23.8 -19.8L23.65 -18.55L23.65 -18.45L23.6 -18.25L23.55 -18.35M48.75,-34.7L48.85 -34.65L49.35 -33.55L49.55 -32.85L48.7 -33.55L47.5 -34.45Q46.35 -35 45.9 -34.25L45.6 -33.35L45.6 -33.15L45.55 -33.3L45.5 -33.9L45.65 -34.6L46.05 -35.25L48.3 -34.95L48.75 -34.7" />
<path style="fill:#FF0000;fill-opacity:1" d="M20.45,-91L20.4 -91.6Q20.75 -92.05 21.7 -92.05L23.6 -91.6L23.95 -91.4L24.2 -90.4L24.45 -89.3L24.4 -88.75L23.85 -88.85L23.85 -89Q23.85 -89.7 22.65 -89.7Q22 -89.7 22 -89.15Q22 -88.65 22.4 -88.65L22.6 -88.75L22.8 -88.85L23.05 -88.8L22.45 -88.55L22.1 -88.1L21.35 -88.9L20.55 -90.75L20.45 -90.75L20.45 -90.7L20.4 -90.9L20.45 -91M20.35,-22.05L20.35 -20.9L19.75 -19.3L19.2 -17.7L19.3 -17.2L19.55 -16.75L19.95 -14.65L19.8 -14.1L19.45 -13.25L18.45 -11.8L18.15 -12.15L17.35 -14.15Q16.95 -15.3 17.2 -16.45Q17.15 -17.65 17.95 -19.55Q18.85 -21.55 20.1 -22.4L20.35 -22.05M22.2,-22.05L22.05 -21.95Q22.4 -21.9 22.55 -21.3L22.7 -20.5Q22.85 -20.15 22.6 -19.2L22.35 -18.3L22.15 -18.25L21.9 -17.8L21.65 -17.3Q20.9 -16.4 20.15 -14.75L19.7 -16.85Q19.4 -17.7 19.55 -17.9L20.2 -19.6Q21.15 -21.35 20.3 -22.35L20.5 -22.5L22.2 -22.15L22.25 -22.1L22.2 -22.05M47.3,-34.1L46.4 -33.75L45.9 -33.4Q46.05 -34.2 46.45 -34.2L47.3 -34.1M45.75,-32.05L45.85 -32.1L45.85 -32.85L46.65 -33.45L48.5 -33.3L49.8 -32.2L49.8 -32.15L49.85 -32.15L50.55 -31.25L51.35 -29.45L52.05 -27.05Q52.05 -25 51.25 -23.85Q49.15 -24.45 48.4 -25.8Q48.05 -26.4 47.85 -27.95L47.8 -29.1L47.4 -30.15L46.15 -31.35Q45.65 -31.9 45.65 -32.4L45.7 -32.4L45.75 -32.05" />
<path style="fill:#E7E9DA;fill-opacity:1" d="M45.35,-37.35L45.3 -37.3L44.85 -38.4L44.85 -38.45L45.6 -38.75L47.5 -38.55L48.75 -37.25L48.15 -37.65L46.7 -37.75L45.9 -36.95L45.45 -36.25L45.6 -37.45L45.55 -37.9L45.45 -37.9L45.35 -37.4L45.35 -37.35M27.3,-45.05L27.2 -45.05L26.3 -45.35L25.85 -45.6L25.6 -45.7L24.95 -46.4Q24.3 -47.25 23.7 -48.65L23.65 -49.4Q23.95 -50.55 25.75 -52.6L26.4 -53.55L26.7 -52.4L27.45 -50.95L28.3 -50.15L27.2 -51.9Q26.65 -52.9 26.45 -53.55L26.4 -53.65L27.15 -54.65L27.9 -55.7L30.6 -58.05L32.1 -58.1L32.1 -58.2L31.85 -58.35L32.15 -58.25L32.25 -58.2Q34.35 -57.4 37.35 -55.2L37.45 -55.25L37.2 -55.7L38.5 -55.05L40.9 -53.85L40.95 -53.8Q38.4 -54.45 37.1 -51.95L36.95 -52L36.75 -52.35L36.2 -52.55L35.7 -52.85L35.3 -52.9Q35.25 -52.7 35.35 -52.6Q35.7 -52.1 37.05 -51.85L36.95 -51.65L37.1 -51.8L37.45 -51.75L37.45 -51.8L37.2 -51.9L37.9 -52.6L38.9 -53.2L39.4 -53.35L39.8 -53.3L39.9 -53.25L41.25 -52.05Q42.05 -51.45 42.7 -51.2Q42.15 -51.5 41.15 -52.55L40.3 -53.35L41.15 -53.3L44.7 -50.4L44.5 -50.35L44.4 -50.45L44.4 -50.25L44.25 -50.15L43.3 -50.1Q41.75 -50 41.4 -49.1L39.7 -50.4Q38.35 -51.25 37.2 -51.5Q37.85 -51 39.6 -50.2L41.3 -48.95L41.25 -48.9L41.4 -49L41.75 -48.7L41.75 -48.8L41.4 -49.05Q42.2 -49.8 43.55 -49.8L44.6 -49.7L45.15 -49.15L46.5 -46.5L46.7 -46.45L47.55 -45.3L47.05 -45.85L47.05 -45.75L47.55 -44.7L48.2 -43.65L48 -42.7Q48 -42.25 48.25 -42L48.85 -41.45L49.15 -40L49.15 -39.1L48.7 -40.2L48.4 -40.45L46.95 -41.8L44.55 -41.9L43.85 -41.15L43.85 -41.7L43.9 -42.45L43.95 -42.65Q44.2 -43.55 45.4 -43.55L46.6 -43.2L46.3 -43.4Q45.1 -44 44.4 -43.65L44.15 -43.45L44.65 -44.25L45.95 -45.7Q45.4 -45.5 44.6 -44.55Q43.8 -43.6 43.8 -43.1L43.65 -42.75L43.65 -42.6Q42.95 -43.2 42.8 -43.65L42.65 -44.35L42.35 -44.95L41.75 -46.2L40.95 -47.2L40.9 -47.1L40.95 -46.9L40.55 -47.4L39.35 -48.4L40.4 -47.25L41.1 -46.55L41.9 -44.7L42.15 -44.1L39.5 -46.5L39.6 -46.55L39.1 -46.75L38.9 -46.9L38.8 -46.9L38.2 -47.15L35.95 -48L33.7 -49.2L32.8 -49.95L32.55 -50.2L32.5 -50.3L32.5 -50.35L32.55 -50.35Q32.45 -50.95 32.6 -51.3L33.15 -53Q32.65 -52.35 32.45 -51.35L32.4 -50.3L29.25 -50.6Q28.45 -50.85 27.5 -52L27.2 -52.65Q27.1 -52.35 27.75 -51.5L28.35 -50.75Q28.7 -50.45 29.45 -50.3L30.75 -50.05L32.35 -50.25L32.35 -50.15Q32.3 -49.8 32.5 -49.5L32.75 -49.3Q32.25 -45.7 32.85 -42.75Q32.65 -45.4 32.75 -45.95L32.9 -47.7L32.95 -47.4L33 -47.2Q32.85 -46.3 33 -45.15L33.3 -43.15L33.85 -39.3L33.9 -39.3L33 -47.2Q33.35 -45.95 33.95 -44.9L34.8 -42.85L35.65 -40.6Q36.55 -38.85 37.2 -36.1L38.1 -31.7L38 -31.7L38 -31L38.1 -30.45Q37.55 -29.95 37.35 -29.35L37.1 -29.15Q36.5 -28.65 36.5 -27.75L36.5 -27.7L36.4 -27.45L36.35 -27.35L35.1 -26.15Q34.1 -25.3 32.4 -24.45L29.5 -22.9L27.4 -21.1L27.5 -22.7Q27.55 -24.1 27.15 -24.6L27 -24.7L27.1 -23.9L27.2 -23.1L27.15 -21.75L27.1 -21.8L26.75 -22.4L25.5 -23.05L23.75 -23L26.55 -25L26.6 -25L27.55 -24.95L28.9 -24.95L29.65 -24.6L30.45 -24.05L30.45 -24.15L29.95 -25.15Q29.5 -25.75 27.9 -25.55L27.25 -25.5L28.6 -26.6L29.2 -27.75L29.8 -28.7L29.8 -28.45L29.95 -28.4L29.9 -28.35L30.55 -27.55L30.85 -26.55L30.8 -23.85L30.95 -23.75L31.1 -23.85L31.35 -25.8Q31.4 -27.15 31.05 -27.6L30.6 -28.05L30.1 -28.35L30.15 -28.4L31.2 -29.05L32.25 -29.25L33.15 -29.15L33.95 -28.85Q34.65 -28.7 35.25 -28.15L36.3 -27.35L35.9 -28.4Q35.35 -29.1 33.8 -29.6Q31.65 -30.35 30.25 -29.2L30.95 -29.9L32 -30.5L32.1 -30.55L32.15 -30.6L32.5 -30.8L33.5 -31.15L33.55 -31.2L34.15 -30.95L35.5 -30.05L35.7 -30L35.7 -30.55L35.55 -30.9L34.85 -31.35L34.1 -31.6L34.1 -31.55L35.35 -30.75L35.5 -30.05L33.8 -31.35L32.6 -31.5L32.85 -31.7Q33.45 -32.2 35.5 -32.1L35.35 -32.15L34.55 -32.25L32.6 -32L32.5 -31.9L32.5 -32.15L32.5 -32.25L32.55 -32.3Q32.6 -32.85 33.15 -34L33.85 -35.75L34.25 -38.65Q33.85 -37.5 33.6 -35.65L32.9 -33.9L32.4 -32.55Q32.05 -33.85 30.9 -35.15Q29.65 -36.45 29.05 -38.35Q28.4 -40.2 28.05 -42.2Q27.75 -42.9 27.75 -43.25Q27.5 -43.8 27.7 -44.3L27.85 -44.95L28.2 -45.8L28.95 -47.6L27.9 -46.1L27.45 -45Q27.9 -46.6 28.9 -48.1L27.9 -46.7Q27.1 -45.35 27.3 -45.1L27.3 -45.05M22.2,-22.15L22.2 -22.3L22.15 -22.35L21.95 -22.45L23.2 -22.75L23.45 -22.85L23.25 -22.6Q23.5 -22.25 23.8 -22.5L23.6 -22.6L25.85 -22.5L27.15 -21.7L27.1 -21.15L27.35 -21.1L25.8 -19.65L24.35 -18.3L23.6 -17.4L23.95 -19.1Q24.05 -20.8 23.3 -21.75Q22.65 -22.5 22.25 -22.2L22.3 -22.15L22.2 -22.15M38.7,-52.9Q41.1 -51 42.25 -50.5L38.8 -53L38.7 -52.9M39.9,-47.4L40.15 -46.75L40.4 -46.85L40 -47.45L39.9 -47.4M42.6,-47.05L42.75 -47.35L42.5 -47.05L42.6 -47.05M33.45,-50.25Q33.35 -51 33.75 -53.95Q33.15 -53.15 33.1 -51.9Q33.1 -50.95 33.35 -50.2L33.45 -50.25M45.65,-44.9L45.2 -44.4L45.75 -44.1Q46.25 -43.8 46.45 -43.8Q46.7 -43.8 46.55 -43.85L46.6 -44.05L45.85 -44.6L46.45 -45L46.25 -45.1L45.65 -44.9M47.7,-40.7L46.4 -40.85L45.4 -40.25Q44.75 -39.6 44.75 -39L44.8 -38.7L44.8 -38.6L44.8 -38.5L44.15 -39.15Q43.65 -39.55 43.75 -39.8L43.85 -40.6L44.65 -41.5L45.9 -41.75Q46.8 -41.75 47.7 -40.75L47.7 -40.7M47.75,-42.5L47.1 -42.9L47.7 -42.45L47.75 -42.5M45.25,-34.3L45.15 -35.05L45.35 -35.75L45.45 -35.2L45.55 -35.2Q45.9 -37.3 47.3 -37.3L48.3 -37.2L49.15 -36.7L49.05 -36.9Q48.9 -37.9 48.3 -38.5Q46.95 -39.35 45.8 -39.2L45.05 -38.95L45.25 -39.55Q45.8 -40.3 47.25 -40.3L48.3 -39.95L48.6 -39.55L48.65 -39.6L48.7 -39.6L49.05 -39.05L49.15 -39.1L49.15 -37.15L50.05 -34.4L50.45 -31.85L50.1 -32.3L50.15 -32.9L49.7 -34.1L48.75 -35L48.7 -34.9L48.7 -34.85Q47.2 -35.8 46.25 -35.55Q45.3 -35.3 45.3 -34.3L45.25 -34.3" />
</g>
</svg>
