<?xml version="1.0" encoding="utf-8"?>
<svg version="1.1" id="Layer_1"
xmlns="http://www.w3.org/2000/svg"
xmlns:xlink="http://www.w3.org/1999/xlink"
xmlns:author="http://www.sothink.com"
width="43px" height="29px"
xml:space="preserve">
<g id="404" transform="matrix(1, 0, 0, 1, -3.05, -14.55)">
<path style="fill:#000000;fill-opacity:1" d="M41.7,19.35L40.95 19.65L40.2 19.45L39.45 19.2L36.8 18.9L28.7 18.5L24.2 18.25L24 18.6L23.4 18.95L22.8 18.85L20.6 18.8L20 19.4L19.9 19.55L20.15 19.05L19.8 19.1L19.95 18.55L20.05 18.3L19.2 18.2L19.2 18.35L18.7 19.55Q18.15 20.75 18.15 21.15L18.05 22.25L18.25 23.65L18.65 25.55Q19.2 26.8 20.2 28.1L21.95 30.15L22.15 30.15L24.65 31.1L29.8 31.85L30.3 32L36.2 33.25L37.95 33.35L40.1 33.75L41.15 35L41.25 36.05L40.95 38.8L42.5 36.85Q43.15 35.65 44.05 34.75Q45.4 33.4 45.4 35.35L43.2 38.9Q41 42.1 40.6 42.1Q40.1 42.1 39.8 41.4L39.75 41.25Q38.7 42.5 37 42.5L35.25 42.2L34.1 41.95L33.55 42.1L30.6 41.05L28 39.75L25.55 38.55L25.35 38.45L27.1 40.35L27.75 41L27.95 40.95Q28.95 40.95 28.95 41.9Q28.95 42.5 28.15 42.85L25.7 43.25L21.85 43.1L19.7 42.85L17.25 43L15.1 42.7L15 42.3Q15 41.6 16 41.35L16.3 41.3Q16.45 40.85 17.1 40.8L17.5 40.8L16.25 38.6Q14 35.5 14 34.8L14.2 34.2Q14.35 33.55 15.95 32.75L18.8 31.35L19.3 31.05L18.6 30.15L17.2 27.85L16.55 25.95Q16.2 24.6 16.2 23.9L16.4 22.1L16.45 21.9L16.45 21.6L16.5 20.05Q16.65 19.3 17.05 18.6L17.2 18.15L17.25 18L14.55 17.45L12.65 17.15L11 17L4.5 16.4Q3.05 16.25 3.05 15.45Q3.05 14.95 3.3 14.8L5.55 14.55L10.2 15L14.85 15.65L17 15.8L19.55 16.1L22.15 16.85L28 17.45Q29.85 17.45 30.9 16.8L33.9 16.8L40.5 17.55Q42 17.9 42 18.7L41.7 19.35M16.2,35.05L17.55 37.05L19.95 40.85L21.85 41.05L25.15 41.3L24.2 40.05L23.05 38.75Q22.35 37.95 22.35 37.4Q22.35 36.8 22.95 36.45L24.9 35.1L25.4 34.6L25.95 34.25Q26.6 34.3 26.8 34.95L26.85 34.95L26.3 35.5Q25.85 36.1 25.75 36.55L26.65 36.95L29.1 38.55L30 38.95L34.5 40.25L35.65 40.55L36.9 40.85Q38.45 40.85 38.9 39.9L39.25 38.4L39.75 36.15L39.6 35.55L39 35L36.3 34.75L36.25 34.8L36.05 35.3L28.7 33.45L24.35 32L23.3 31.6L22.95 31.7Q20.95 32.3 19.65 33L16.2 35.05" />
<path style="fill:#FFFFFF;fill-opacity:1" d="M19.65,33Q20.95 32.3 22.95 31.7L23.3 31.6L24.35 32L28.7 33.45L36.05 35.3L36.25 34.8L36.3 34.75L39 35L39.6 35.55L39.75 36.15L39.25 38.4L38.9 39.9Q38.45 40.85 36.9 40.85L35.65 40.55L34.5 40.25L30 38.95L29.1 38.55L26.65 36.95L25.75 36.55Q25.85 36.1 26.3 35.5L26.85 34.95L26.8 34.95Q26.6 34.3 25.95 34.25L25.4 34.6L24.9 35.1L22.95 36.45Q22.35 36.8 22.35 37.4Q22.35 37.95 23.05 38.75L24.2 40.05L25.15 41.3L21.85 41.05L19.95 40.85L17.55 37.05L16.2 35.05L19.65 33" />
<path style="fill:#000000;fill-opacity:1" d="M23.5,30.8L24.15 30.95L24.65 31.1L27.55 31.7L27.8 32.15Q27.8 32.95 26.6 32.95L24.35 32.55L22.05 32.1Q19.8 32.1 19.8 30.9Q19.8 30.15 20.6 30.2L23.5 30.8" />
</g>
</svg>
