<?xml version="1.0" encoding="utf-8"?>
<svg version="1.1" id="Layer_1"
xmlns="http://www.w3.org/2000/svg"
xmlns:xlink="http://www.w3.org/1999/xlink"
xmlns:author="http://www.sothink.com"
width="78px" height="65px"
xml:space="preserve">
<g id="678" transform="matrix(1, 0, 0, 1, -51.85, 93.6)">
<path style="fill:#000000;fill-opacity:1" d="M88.4,-80.85L86.3 -79L84.3 -77.05L82.75 -76.1L82.75 -76L82.5 -75.95L80.7 -75.15L78.95 -74.4Q78.55 -74.05 78.5 -73.4L80.6 -71.65L82.9 -69.45Q84.85 -67.8 85.5 -67.5L86.1 -67.1Q86.85 -66.7 88.3 -66.6L88.35 -66.6L89.1 -66.5L93.8 -66.45L97.6 -67L97.75 -67L98.7 -67.8L99.6 -68.45L100.6 -68.85L100.65 -68.6L100.65 -68.4L101.2 -68.6L102.3 -68.9L103.3 -69.15L106.6 -69.25L106.9 -68.85L106.8 -68.55L108.75 -68.55Q109.3 -69.2 109.65 -69.2L110.05 -69.15L110.1 -68.95L110 -68.65L111.35 -68.95Q111.7 -68.95 111.95 -69.2L114 -69.15L115.3 -68.7L118.15 -67.55Q119.05 -67.2 119.45 -67.15L121.1 -67.55Q121.8 -67.75 122.5 -66.6L122.5 -66.5L124.55 -65.9L127.35 -64.05L128.9 -62.5Q129.5 -61.8 129.5 -61.1Q129.5 -59.9 126.7 -59.9Q124.35 -59.9 123.15 -60.9L122 -62.3L121.1 -62.95L120.55 -63.05L120.15 -63L121.2 -62.85L121.25 -62.75L120.4 -62.55L118.3 -63L115.6 -63.45L114.4 -63.15L113.65 -62.9L112.9 -63.1Q112.75 -62.95 112.4 -62.95L111.45 -63.1Q111.45 -62.6 108.95 -61.95L107.35 -61.35L104.2 -60.95L100.25 -60.1L97.55 -59.35L96.65 -59L96.3 -58.4L96.05 -58.15L98.85 -56.7L102.95 -54.6L104.15 -53.85L105.9 -52.95L107.45 -52.3L108.35 -51.55L108.15 -50.75Q108.15 -50 109.25 -48.15L109.25 -48.05Q109.95 -46.95 109.95 -46.1L109.45 -44.5Q109 -43.25 109.35 -42.2L109.3 -42.15L110.2 -40.8Q110.65 -40.1 110.65 -39.2L110.75 -37.75L110.65 -36.35L110.6 -36.35L111 -35.3L111.2 -35.2Q113.1 -33.7 113.1 -30.5L113 -29.1Q112.8 -28.6 111.9 -28.6Q110.15 -28.6 108.5 -30.55L107.2 -32.55Q106.85 -33 106.5 -34.5Q106.15 -36 106.15 -36.8L106.2 -37.15L105.65 -37.85Q105.25 -38.45 105.2 -38.8L105.2 -39.85L105.3 -40.65L105.15 -41.95L104.2 -43.35Q103.35 -44.7 103.35 -46.05L103.45 -46.9L103.45 -47L103.45 -47.2L103.4 -47.2L100.9 -48.4L101 -48.3L101.15 -47.95L100.9 -47.8Q100.55 -47.8 99.35 -48.3L97.8 -49L96.2 -49.55Q95.55 -49.8 95.25 -50.05L95.65 -49.5L95.65 -49.35Q95.7 -49.25 95.45 -49.25Q95.25 -49.25 94.3 -49.9L93.1 -50.75Q91.2 -51.4 90.15 -52.05Q88.2 -52.05 87.05 -52.7Q86.05 -53.2 85.05 -54.5Q84.7 -54.95 84.05 -56.4L83.6 -57.45L82.3 -58.85Q80.95 -60.05 79.25 -60.4L79.2 -60.45Q77.1 -61.65 75 -62.2Q71.85 -63 69.55 -64.35L68.55 -64.8Q65.05 -66.6 64.2 -67.45L64.05 -67.35L63.9 -67.5L60.95 -70.5L59.45 -72L58.9 -72.65Q58.25 -72.8 58.05 -73.3L57.95 -74.15L57.6 -75.7L56.95 -78.95L56.2 -82.1L55.25 -85.4L55.25 -85.85L53.45 -88.65L53 -89.5L52.6 -90.45L52.1 -91.35Q51.8 -91.9 51.85 -92.3Q52.6 -92.3 53.4 -91.75L54.55 -90.9L54.8 -91.3Q54.8 -91.6 55.25 -91.6Q55.65 -91.6 56.15 -91.2L56.1 -91.35L56.2 -91.75L56.4 -92.1Q56.8 -92.65 57.6 -91.85L57.95 -90.45L58.05 -90.7Q58.45 -91.5 59.25 -91.2L59.2 -89.8L59.4 -88.4L59.15 -87.85L58.5 -87.3Q58.25 -87.1 57.95 -86.35Q58.6 -84.2 60 -80.45L61.2 -77.25L61.6 -76.4Q62.9 -77.1 64.4 -79L62.15 -77.95L64.95 -80.2L66.65 -81.4L69.3 -81.55Q73.05 -80.15 73.05 -77.15L73.05 -77.1L73.15 -77.1L73.35 -76.5L73.35 -76.55L73.95 -77.7Q74.35 -78.9 75.85 -78.85L77.4 -78.45L83.05 -80.75L82.05 -82.45L80.75 -84.45L78.75 -86.5L77.85 -87.45L76.85 -87.95L76.1 -88.15L76.05 -88.2L75.8 -88.1L74.45 -88.5L74.4 -89.1L74.05 -90.4L73.65 -91.15L73.2 -91.85Q73.2 -92.4 73.75 -92.4L74.7 -91.8L74.6 -92.65L75 -93.2L75.6 -93.6L75.95 -93.35L76 -93L76.1 -92.45L76.1 -92.4L77.2 -92.7Q77.75 -92.7 78.1 -92.35L78.25 -92.6L78.75 -92.7Q79.35 -92.7 79.65 -91.7L79.95 -91.15L80.15 -90.9L80.25 -90.65L80.7 -88.8L80.75 -88.8L80.8 -88.65L82.75 -87.2L84.45 -85.35L84.95 -85L84.95 -84.95L84.95 -84.85L86.1 -83.4L87.15 -82.45L87.75 -81.8L88.25 -81.4L88.4 -80.85M91.2,-66.05L89.3 -63.2L87.8 -60.25L86.2 -57.25Q85.8 -56.45 85.75 -55.75L85.8 -54.5Q87.45 -52.5 90.9 -52.5L91.8 -52.7L92.65 -52.8L91.7 -52.25L91 -52.05L92.35 -51.4L95.85 -50.1L97.85 -49.6L100.5 -48.85L102.3 -48.2L103.45 -47.5Q103.45 -48.3 103.8 -49.15Q104.4 -50.7 105.75 -50.7L107.05 -50.5L107 -50.45L108.05 -49.55L107.7 -50.8Q107.95 -51.2 107.55 -51.55L107.05 -51.9L104.85 -52.95Q102.65 -54.65 100.3 -55.75L97.55 -56.8Q95.85 -57.5 95.75 -58L95.35 -57.9L95.3 -57.1L95.05 -56.4L95.25 -57.85L94.85 -57.85L95 -56.6L94.6 -55.35L94.05 -54.25L94.45 -56L94.7 -57.85L92.3 -58.3L90.55 -58.8L94.2 -58.15Q95.4 -58.15 95.75 -58.5L95.85 -58.8L95.6 -58.85L96.35 -59.5L96.4 -59.6L97.65 -61L97.05 -59.75L97.7 -59.8L100.8 -60.75L104.3 -61.15L107.9 -61.8Q108.6 -62 109.2 -62.35L110.65 -63.25Q109.4 -63.25 108.7 -64.45Q108.2 -65.3 108.2 -66Q108.2 -67.5 109.25 -68.2L109.2 -68.05L109.55 -68.4L108.7 -67.85L107.75 -66.75L107.7 -67L108.4 -68.1L107.3 -68.05L103.1 -67.9L100.5 -67.35L97.95 -66.65L97.7 -66.5L97.6 -66.55L97.05 -66.4L94.45 -65.9L91.2 -66.05M100.7,-67.85L100.25 -67.85L100.25 -67.95L100.2 -68L100.1 -68.3Q99.4 -68 98.75 -67.4L98.6 -67.25L100 -67.65L101.1 -67.9L102.7 -68.15L106.25 -68.5L106.25 -68.7L104.8 -68.7L102.25 -68.45L100.7 -67.85M114.25,-63.8L114.15 -63.8Q112.95 -63.8 112.45 -65.4L112.15 -67L112.2 -67.5L111.75 -67.1Q111.2 -66.5 111.2 -65.8L111.45 -64.95Q111.65 -64.3 111.8 -64.15L111.85 -64.05Q111.25 -64 110.9 -64.8L110.65 -65.9Q110.65 -67.3 112.35 -68.15L112.85 -68.7L110.5 -68.3L109.1 -67.75L108.75 -66.9L108.65 -66L108.9 -65.2L109.25 -64.4L109.85 -63.95L110.8 -63.7L112.65 -63.6L112.85 -63.55L112.95 -63.45L113.95 -63.7L114.15 -63.75L114.25 -63.8M108.1,-65.65Q108.1 -63.55 109.15 -63.2Q108.35 -63.4 108.1 -63.95L107.9 -65Q107.9 -65.65 108.15 -65.8L108.1 -65.65M112.7,-66.25L112.95 -65.35L113.25 -64.75Q113.45 -65.45 114.55 -66.35Q116.1 -67.6 117.35 -67.1L117.35 -67.05L117.25 -67.05L116.4 -66.35L116 -65.7Q116 -64.65 117.75 -63.8L117.95 -63.65L117.75 -63.6Q116.9 -63.6 116.15 -64.4Q115.45 -65.15 115.45 -65.7Q115.45 -66.2 115.8 -66.6L114.6 -65.75Q113.55 -64.85 113.5 -64.35Q113.8 -63.95 114.55 -63.85L115.2 -63.95L116.8 -63.65L118.25 -63.25L118.55 -63.2Q117.85 -63.45 117.85 -64.6Q117.85 -65.55 118.65 -66.2L118.75 -66.2L118.6 -65.95L119.8 -66.3L120.55 -66.55Q118.9 -66.8 117.15 -67.55Q114.65 -68.6 113.3 -68.65Q112.65 -67.65 112.65 -67L112.7 -66.25M118.9,-65.85L119.3 -66.1Q118.8 -65.95 118.65 -65.65L118.9 -65.85M118.4,-65.65L118.1 -65L118.45 -65.45L118.4 -65.6L118.4 -65.65M118.2,-64.05Q118.2 -63.55 118.7 -63.45L121.05 -63.3L121.35 -63.15L122.55 -62L122.9 -61.45L123.5 -60.9L124.6 -60.55L125.65 -60.3Q129.1 -60.3 129.1 -61.15Q129.1 -62.8 125.4 -65.05L123.8 -65.85L120.4 -66Q119.55 -65.95 118.85 -65.25Q118.2 -64.6 118.2 -64.05M75,-92.4L75.3 -91.15L75.35 -91.2L75.8 -91.5L77.9 -91.65L78.1 -91.65L77.75 -91.95L77.2 -92.25L76.2 -92Q75.65 -92 75.6 -92.5L75.55 -93.15L75 -92.4M74.75,-89.1Q74.95 -88.6 76.05 -88.4L76.55 -88.55Q76.15 -88.8 75.7 -89.5L75.1 -90.65L75.05 -90.65L75.05 -90.7Q74.9 -90.7 74.5 -91.25L73.7 -91.85L74.55 -90.05L74.75 -89.1M80.2,-88.8L80 -88.9L80.1 -89L80.3 -88.9L80.15 -89.3L79.9 -90.3L79.35 -91.25L78.3 -91.45L75.7 -91.1L75.4 -90.85L75.85 -89.75Q76.35 -88.9 77.25 -88.6L77.1 -88.5L77.7 -88.2L77.8 -88.1L77.8 -88.15L77.95 -88.45L77.9 -88.5L77.9 -88.8Q77.9 -89.6 78.7 -89.6L79.65 -89L79.55 -88.8L80 -88.8L80.2 -88.8M78.5,-91.85L78.45 -91.7L79.1 -91.7L78.8 -92.25L78.5 -91.85M70.85,-64.7L70.6 -64.85Q68.5 -66.2 67.35 -68L67.45 -68Q69.3 -65.6 72.55 -64.35L71.8 -66.3L70.7 -68.8L70.35 -69.6L69.7 -70.5L69.5 -70.55L68.65 -69.7Q68.1 -69.7 68.1 -70.25L68.2 -70.8L67.95 -70.75L67.2 -69.7Q66.85 -69.95 66.85 -70.2L67.05 -70.75L66.9 -70.8L66.65 -70.75L63.05 -70.55Q62.5 -70.55 62.25 -70.8L62.95 -71.35L63.5 -72.05L63.95 -72.8L64 -72.95L62.95 -73.8L62.5 -73.4L61.7 -72.55L61.6 -72.8Q61.6 -73.15 62.35 -73.9L61.95 -74.4L61.5 -75.2L61.3 -75.8L60.75 -75.9L59.75 -76.05L60.5 -76.25L61.1 -76.2L60.85 -76.85L59.6 -80.1Q57.75 -84.45 57.5 -86.1L57.45 -86.3L57.45 -86.4L57.45 -86.6L57.7 -86.9L58.25 -87.55L59 -88.45L58.8 -89.65L58.8 -90.75Q58.4 -90.6 58.15 -89.55L58 -89.5L58 -89.45L57.95 -89.35Q57.7 -89.6 57.6 -90.45L57.05 -91.65Q56.85 -91.7 56.65 -91.4L56.3 -91L56.25 -90.85L56.1 -90.75L55.3 -91.1L55.05 -90.8L54.6 -90.5Q54.2 -90.5 53.45 -91.1L52.25 -91.85L53.95 -88.55L54.9 -86.95L55.75 -85.35L55.7 -85.05L55.5 -85.45L57.15 -79.45Q57.4 -77.8 57.95 -75.85Q58.5 -74 58.95 -73.15L59.8 -72.35L61.4 -70.75L64.65 -67.65L65.8 -67.05Q67.4 -66.15 68.4 -65.8L70.55 -64.8L70.85 -64.7M62.75,-74.5L63.3 -75.3L63.9 -76.1L62.8 -75.9L62 -75.7L61.9 -75.7L62.4 -74.65L62.75 -74.5M63.85,-74.55L63.35 -74.15L63.85 -73.8L64 -73.7L63.9 -74.5L63.85 -74.55M82.5,-86.95L80.8 -88.4L80.75 -88.35L79.35 -88.4L78.95 -88.4L78.5 -88.25L78.25 -88.25L78 -87.9L78.6 -87.1L80.65 -84.95L81.6 -83.9L82 -83.4Q81.85 -83.75 81.85 -84.2Q81.85 -84.8 82.8 -85.35L83.9 -85.55L82.5 -86.95M80.25,-79.5Q77.85 -78.65 77.45 -78.1L77.25 -78.35Q75 -78.55 74.1 -77.3Q73.45 -75.6 72.9 -75.1L72.85 -75.05L72.75 -75.05L72.65 -74.85L72.6 -74.65L73.05 -74.25Q73.55 -73.4 73.8 -73.25Q76.3 -71.6 79.1 -71.6L79.6 -71.8Q78.5 -72.7 78.4 -73.35L78.25 -73.3L78.2 -73.5L78.65 -74.55Q79.25 -75.3 80.1 -75.45Q80.8 -75.55 82.15 -76.2L82.15 -76.25L82.35 -77.2Q82.35 -77.7 81.8 -78.4Q81.15 -79.25 80.25 -79.45L80.25 -79.5M71.85,-74.25L71.85 -74.3L71.75 -74.3L71.85 -74.25M69.85,-70.9L70.15 -70.7L70.3 -70.6L70.25 -70.45L70.85 -69.85Q72.25 -68.6 72.85 -68.6L73.3 -68.7L73.5 -70Q73.5 -71.1 72.75 -72.6L72.15 -73.9L71.25 -72.35Q71.25 -72 71.95 -70.6L71.85 -70.55L70.9 -71.95L69.85 -70.9M70.8,-69.05L70.85 -68.95L70.9 -68.95L70.8 -69.05M71.35,-63.55L72.7 -62.95L72.9 -63L71.35 -63.55M108.3,-46.4Q107.6 -47.2 105.95 -47.2Q104.9 -47.2 104.5 -46.7L104.05 -45.95L104.15 -45.75L104 -45.85L103.8 -45.6Q103.95 -45 104.4 -44.15L104.85 -43.4L104.9 -43.45L104.8 -43.95Q104.8 -44.7 106.1 -45.5Q107.65 -46.45 109.3 -45.3L109.5 -46.1Q109.5 -46.85 108.7 -48.25L108.1 -48.6L106.85 -49L106.85 -48.95L106.8 -49L106.7 -49Q105.4 -49 104.55 -47.6L104.45 -47.4L105.05 -47.7L107.7 -47.45Q109.2 -46.8 109.2 -45.8Q109.05 -45.65 108.9 -45.65L108.3 -46.4M109.3,-45.3L108.85 -45.25L107.8 -45.3Q106.05 -45.3 105.4 -44.15L105.3 -43.7L105.8 -43.8Q106.95 -43.8 108.3 -42.95L108.6 -42.75L108.45 -43.1L108.45 -43.9L108.55 -43.9Q108.4 -43.2 109.15 -42.35L108.95 -43.75Q108.95 -44.35 109.25 -45.2L109.3 -45.3M109.45,-41.35L109.4 -41.3L109.25 -41.45L109 -41.6L108.25 -41.85Q106.4 -41.85 105.95 -40.7Q105.7 -40 105.9 -39.4Q105.95 -39.3 105.7 -39.3Q105.55 -39.3 105.5 -39.4L105.45 -39Q105.45 -38.7 105.95 -38.05L106.25 -37.65L106.3 -38.1L106.3 -38.3L106 -38.3L105.95 -38.65L106.35 -39.7Q106.75 -40.5 107.95 -40.5Q108.75 -40.5 109.25 -39.9L109.45 -39.6L109.95 -38.85L110.35 -37.15L110.55 -36.4L110.4 -39.7L109.55 -41.35L109.45 -41.35M108.95,-41.9L108.15 -42.6L106.85 -43.3L105.15 -43.3L105.05 -42.95L105.3 -42.5L105.55 -40.85L106.25 -41.8L109.1 -41.7L108.95 -41.9M105.7,-52.2L107.45 -51.55L106.2 -51.9L102.35 -52.05L105.7 -52.2M95.2,-50.1L94.2 -50.4L94.25 -50.35Q95 -49.85 95.25 -50.05L95.2 -50.1M107.5,-49.35L108.2 -49L107 -50.45L105.8 -50.35Q104.85 -50.3 104.45 -49.8L103.85 -48.85L103.8 -48.55L104.4 -49.3L105.9 -49.45L107.5 -49.35M104.25,-48.6L103.95 -47.2L104.25 -47.75L105.05 -48.9L105.45 -49.2Q104.45 -49.15 104.15 -48.75L103.65 -47.3L104.15 -48.6L104.25 -48.6M103.75,-45.85L103.8 -46.2L103.75 -46.3L103.7 -46.1L103.75 -45.85M100.8,-48.45L97.45 -49.55L98.2 -49.25Q100.6 -48.3 100.65 -48.3L100.8 -48.4L100.8 -48.45M106.55,-39.35Q106.3 -38.85 106.35 -38.5L106.6 -39.1L106.9 -39.8L106.55 -39.35M106.4,-37.55L106.35 -37.4L106.4 -37.3L106.45 -37.1L106.4 -37L106.3 -37.05L106.3 -36.85Q106.3 -36.2 106.75 -34.7L107.35 -32.85Q107.55 -32.35 108.85 -30.8L109.65 -29.85Q110.6 -29.05 111.85 -29.05L112.6 -29.2L112.7 -29.95L112.75 -30.75Q112.75 -31.95 112.35 -33.1Q111.9 -34.3 111.2 -34.85L111.75 -33.7L111.65 -33.65L111.1 -34.5L110.6 -35.2Q109.5 -35.65 109.35 -36.2L109.2 -37.25L108.55 -38.75L106.95 -38.95L106.8 -38.7L106.4 -37.35L106.4 -37.55M109.6,-37.05Q109.6 -36.45 110 -36.05L110.4 -35.75Q110.1 -36.5 110.1 -36.9L109.45 -38.95Q108.9 -39.9 108.15 -39.9Q107.6 -39.9 107.15 -39.25L107.75 -39.35Q108.85 -39.35 109.35 -38.3L109.6 -37.05" />
<path style="fill:#E7E9DA;fill-opacity:1" d="M94.45,-65.9L97.05 -66.4L97.6 -66.55L97.7 -66.5L97.95 -66.65L100.5 -67.35L103.1 -67.9L107.3 -68.05L108.4 -68.1L107.7 -67L107.75 -66.75L108.7 -67.85L109.55 -68.4L109.2 -68.05L109.25 -68.2Q108.2 -67.5 108.2 -66Q108.2 -65.3 108.7 -64.45Q109.4 -63.25 110.65 -63.25L109.2 -62.35Q108.6 -62 107.9 -61.8L104.3 -61.15L100.8 -60.75L97.7 -59.8L97.05 -59.75L97.65 -61L96.4 -59.6L96.35 -59.5L95.6 -58.85L95.85 -58.8L95.75 -58.5Q95.4 -58.15 94.2 -58.15L90.55 -58.8L92.3 -58.3L94.7 -57.85L94.45 -56L94.05 -54.25L94.6 -55.35L95 -56.6L94.85 -57.85L95.25 -57.85L95.05 -56.4L95.3 -57.1L95.35 -57.9L95.75 -58Q95.85 -57.5 97.55 -56.8L100.3 -55.75Q102.65 -54.65 104.85 -52.95L107.05 -51.9L107.55 -51.55Q107.95 -51.2 107.7 -50.8L108.05 -49.55L107 -50.45L107.05 -50.5L105.75 -50.7Q104.4 -50.7 103.8 -49.15Q103.45 -48.3 103.45 -47.5L102.3 -48.2L100.5 -48.85L97.85 -49.6L95.85 -50.1L92.35 -51.4L91 -52.05L91.7 -52.25L92.65 -52.8L91.8 -52.7L90.9 -52.5Q87.45 -52.5 85.8 -54.5L85.75 -55.75Q85.8 -56.45 86.2 -57.25L87.8 -60.25L89.3 -63.2L91.2 -66.05L94.45 -65.9M114.15,-63.75L113.95 -63.7L112.95 -63.45L112.85 -63.55L112.65 -63.6L110.8 -63.7L109.85 -63.95L109.25 -64.4L108.9 -65.2L108.65 -66L108.75 -66.9L109.1 -67.75L110.5 -68.3L112.85 -68.7L112.35 -68.15Q110.65 -67.3 110.65 -65.9L110.9 -64.8Q111.25 -64 111.85 -64.05L111.8 -64.15Q111.65 -64.3 111.45 -64.95L111.2 -65.8Q111.2 -66.5 111.75 -67.1L112.2 -67.5L112.15 -67L112.45 -65.4Q112.95 -63.8 114.15 -63.8L114.15 -63.75M108.15,-65.8Q107.9 -65.65 107.9 -65L108.1 -63.95Q108.35 -63.4 109.15 -63.2Q108.1 -63.55 108.1 -65.65L108.15 -65.8M112.65,-67Q112.65 -67.65 113.3 -68.65Q114.65 -68.6 117.15 -67.55Q118.9 -66.8 120.55 -66.55L119.8 -66.3L118.6 -65.95L118.75 -66.2L118.65 -66.2Q117.85 -65.55 117.85 -64.6Q117.85 -63.45 118.55 -63.2L118.25 -63.25L116.8 -63.65L115.2 -63.95L114.55 -63.85Q113.8 -63.95 113.5 -64.35Q113.55 -64.85 114.6 -65.75L115.8 -66.6Q115.45 -66.2 115.45 -65.7Q115.45 -65.15 116.15 -64.4Q116.9 -63.6 117.75 -63.6L117.95 -63.65L117.75 -63.8Q116 -64.65 116 -65.7L116.4 -66.35L117.25 -67.05L117.35 -67.05L117.35 -67.1Q116.1 -67.6 114.55 -66.35Q113.45 -65.45 113.25 -64.75L112.95 -65.35L112.7 -66.25L112.65 -67M108.9,-45.65Q109.05 -45.65 109.2 -45.8Q109.2 -46.8 107.7 -47.45L105.05 -47.7L104.45 -47.4L104.55 -47.6Q105.4 -49 106.7 -49L106.8 -49L106.85 -48.95L106.85 -49L108.1 -48.6L108.7 -48.25Q109.5 -46.85 109.5 -46.1L109.3 -45.3Q107.65 -46.45 106.1 -45.5Q104.8 -44.7 104.8 -43.95L104.9 -43.45L104.85 -43.4L104.4 -44.15Q103.95 -45 103.8 -45.6L104 -45.85L104.15 -45.75L104.05 -45.95L104.5 -46.7Q104.9 -47.2 105.95 -47.2Q107.6 -47.2 108.3 -46.4L108.9 -45.65M109.25,-45.2Q108.95 -44.35 108.95 -43.75L109.15 -42.35Q108.4 -43.2 108.55 -43.9L108.45 -43.9L108.45 -43.1L108.6 -42.75L108.3 -42.95Q106.95 -43.8 105.8 -43.8L105.3 -43.7L105.4 -44.15Q106.05 -45.3 107.8 -45.3L108.85 -45.25L109.3 -45.3L109.25 -45.2M109.55,-41.35L110.4 -39.7L110.55 -36.4L110.35 -37.15L109.95 -38.85L109.45 -39.6L109.25 -39.9Q108.75 -40.5 107.95 -40.5Q106.75 -40.5 106.35 -39.7L105.95 -38.65L106 -38.3L106.3 -38.3L106.3 -38.1L106.25 -37.65L105.95 -38.05Q105.45 -38.7 105.45 -39L105.5 -39.4Q105.55 -39.3 105.7 -39.3Q105.95 -39.3 105.9 -39.4Q105.7 -40 105.95 -40.7Q106.4 -41.85 108.25 -41.85L109 -41.6L109.25 -41.45L109.4 -41.3L109.45 -41.35L109.55 -41.35M109.1,-41.7L106.25 -41.8L105.55 -40.85L105.3 -42.5L105.05 -42.95L105.15 -43.3L106.85 -43.3L108.15 -42.6L108.95 -41.9L109.1 -41.7M102.35,-52.05L106.2 -51.9L107.45 -51.55L105.7 -52.2L102.35 -52.05M105.9,-49.45L104.4 -49.3L103.8 -48.55L103.85 -48.85L104.45 -49.8Q104.85 -50.3 105.8 -50.35L107 -50.45L108.2 -49L107.5 -49.35L105.9 -49.45M104.15,-48.6L103.65 -47.3L104.15 -48.75Q104.45 -49.15 105.45 -49.2L105.05 -48.9L104.25 -47.75L103.95 -47.2L104.25 -48.6L104.15 -48.6M100.8,-48.4L100.65 -48.3Q100.6 -48.3 98.2 -49.25L97.45 -49.55L100.8 -48.45L100.8 -48.4" />
<path style="fill:#FF0000;fill-opacity:1" d="M118.85,-65.25Q119.55 -65.95 120.4 -66L123.8 -65.85L125.4 -65.05Q129.1 -62.8 129.1 -61.15Q129.1 -60.3 125.65 -60.3L124.6 -60.55L123.5 -60.9L122.9 -61.45L122.55 -62L121.35 -63.15L121.05 -63.3L118.7 -63.45Q118.2 -63.55 118.2 -64.05Q118.2 -64.6 118.85 -65.25M80,-88.8L79.55 -88.8L79.65 -89L78.7 -89.6Q77.9 -89.6 77.9 -88.8L77.9 -88.5L77.95 -88.45L77.8 -88.15L77.8 -88.1L77.7 -88.2L77.1 -88.5L77.25 -88.6Q76.35 -88.9 75.85 -89.75L75.4 -90.85L75.7 -91.1L78.3 -91.45L79.35 -91.25L79.9 -90.3L80.15 -89.3L80.3 -88.9L80.1 -89L80 -88.9L80 -88.8M106.4,-37.35L106.8 -38.7L106.95 -38.95L108.55 -38.75L109.2 -37.25L109.35 -36.2Q109.5 -35.65 110.6 -35.2L111.1 -34.5L111.65 -33.65L111.75 -33.7L111.2 -34.85Q111.9 -34.3 112.35 -33.1Q112.75 -31.95 112.75 -30.75L112.7 -29.95L112.6 -29.2L111.85 -29.05Q110.6 -29.05 109.65 -29.85L108.85 -30.8Q107.55 -32.35 107.35 -32.85L106.75 -34.7Q106.3 -36.2 106.3 -36.85L106.3 -37.05L106.4 -37L106.45 -37.1L106.4 -37.3L106.4 -37.35M109.35,-38.3Q108.85 -39.35 107.75 -39.35L107.15 -39.25Q107.6 -39.9 108.15 -39.9Q108.9 -39.9 109.45 -38.95L110.1 -36.9Q110.1 -36.5 110.4 -35.75L110 -36.05Q109.6 -36.45 109.6 -37.05L109.35 -38.3" />
<path style="fill:#DCB478;fill-opacity:1" d="M75.55,-93.15L75.6 -92.5Q75.65 -92 76.2 -92L77.2 -92.25L77.75 -91.95L78.1 -91.65L77.9 -91.65L75.8 -91.5L75.35 -91.2L75.3 -91.15L75 -92.4L75.55 -93.15M74.55,-90.05L73.7 -91.85L74.5 -91.25Q74.9 -90.7 75.05 -90.7L75.05 -90.65L75.1 -90.65L75.7 -89.5Q76.15 -88.8 76.55 -88.55L76.05 -88.4Q74.95 -88.6 74.75 -89.1L74.55 -90.05M78.8,-92.25L79.1 -91.7L78.45 -91.7L78.5 -91.85L78.8 -92.25M70.55,-64.8L68.4 -65.8Q67.4 -66.15 65.8 -67.05L64.65 -67.65L61.4 -70.75L59.8 -72.35L58.95 -73.15Q58.5 -74 57.95 -75.85Q57.4 -77.8 57.15 -79.45L55.5 -85.45L55.7 -85.05L55.75 -85.35L54.9 -86.95L53.95 -88.55L52.25 -91.85L53.45 -91.1Q54.2 -90.5 54.6 -90.5L55.05 -90.8L55.3 -91.1L56.1 -90.75L56.25 -90.85L56.3 -91L56.65 -91.4Q56.85 -91.7 57.05 -91.65L57.6 -90.45Q57.7 -89.6 57.95 -89.35L58 -89.45L58 -89.5L58.15 -89.55Q58.4 -90.6 58.8 -90.75L58.8 -89.65L59 -88.45L58.25 -87.55L57.7 -86.9L57.45 -86.6L57.45 -86.4L57.45 -86.3L57.5 -86.1Q57.75 -84.45 59.6 -80.1L60.85 -76.85L61.1 -76.2L60.5 -76.25L59.75 -76.05L60.75 -75.9L61.3 -75.8L61.5 -75.2L61.95 -74.4L62.35 -73.9Q61.6 -73.15 61.6 -72.8L61.7 -72.55L62.5 -73.4L62.95 -73.8L64 -72.95L63.95 -72.8L63.5 -72.05L62.95 -71.35L62.25 -70.8Q62.5 -70.55 63.05 -70.55L66.65 -70.75L66.9 -70.8L67.05 -70.75L66.85 -70.2Q66.85 -69.95 67.2 -69.7L67.95 -70.75L68.2 -70.8L68.1 -70.25Q68.1 -69.7 68.65 -69.7L69.5 -70.55L69.7 -70.5L70.35 -69.6L70.7 -68.8L71.8 -66.3L72.55 -64.35Q69.3 -65.6 67.45 -68L67.35 -68Q68.5 -66.2 70.6 -64.85L70.55 -64.8M83.9,-85.55L82.8 -85.35Q81.85 -84.8 81.85 -84.2Q81.85 -83.75 82 -83.4L81.6 -83.9L80.65 -84.95L78.6 -87.1L78 -87.9L78.25 -88.25L78.5 -88.25L78.95 -88.4L79.35 -88.4L80.75 -88.35L80.8 -88.4L82.5 -86.95L83.9 -85.55M80.25,-79.45Q81.15 -79.25 81.8 -78.4Q82.35 -77.7 82.35 -77.2L82.15 -76.25L82.15 -76.2Q80.8 -75.55 80.1 -75.45Q79.25 -75.3 78.65 -74.55L78.2 -73.5L78.25 -73.3L78.4 -73.35Q78.5 -72.7 79.6 -71.8L79.1 -71.6Q76.3 -71.6 73.8 -73.25Q73.55 -73.4 73.05 -74.25L72.6 -74.65L72.65 -74.85L72.75 -75.05L72.85 -75.05L72.9 -75.1Q73.45 -75.6 74.1 -77.3Q75 -78.55 77.25 -78.35L77.45 -78.1Q77.85 -78.65 80.25 -79.5L80.25 -79.45M70.9,-71.95L71.85 -70.55L71.95 -70.6Q71.25 -72 71.25 -72.35L72.15 -73.9L72.75 -72.6Q73.5 -71.1 73.5 -70L73.3 -68.7L72.85 -68.6Q72.25 -68.6 70.85 -69.85L70.25 -70.45L70.3 -70.6L70.15 -70.7L69.85 -70.9L70.9 -71.95" />
</g>
</svg>
